<svg width="8" height="6" viewBox="0 0 8 6" fill="none" xmlns="http://www.w3.org/2000/svg">
<path d="M3.90079 5.92501C3.73485 5.92418 3.57118 5.88641 3.42165 5.81446C3.27212 5.7425 3.14048 5.63816 3.03629 5.50901L0.299762 2.19401C0.139857 1.99444 0.0392303 1.75396 0.00935029 1.49999C-0.0205298 1.24601 0.0215381 0.988745 0.13076 0.757512C0.219343 0.556549 0.3639 0.385331 0.547166 0.264307C0.730433 0.143283 0.944663 0.0775687 1.16427 0.0750122H6.63732C6.85692 0.0775687 7.07115 0.143283 7.25442 0.264307C7.43769 0.385331 7.58224 0.556549 7.67083 0.757512C7.78005 0.988745 7.82212 1.24601 7.79224 1.49999C7.76236 1.75396 7.66173 1.99444 7.50183 2.19401L4.7653 5.50901C4.66111 5.63816 4.52947 5.7425 4.37994 5.81446C4.23041 5.88641 4.06673 5.92418 3.90079 5.92501Z" fill="#545454"/>
</svg>
