<svg width="36" height="31" viewBox="0 0 36 31" fill="none" xmlns="http://www.w3.org/2000/svg">
<path fill-rule="evenodd" clip-rule="evenodd" d="M10.284 6.50785C10.9977 6.09308 11.8367 5.8717 12.6951 5.8717C13.2462 5.8717 13.6929 6.26026 13.6929 6.73958C13.6929 7.21889 13.2462 7.60745 12.6951 7.60745C12.2314 7.60745 11.7782 7.72703 11.3927 7.95107C11.0072 8.17511 10.7067 8.49355 10.5293 8.86611C10.3519 9.23868 10.3055 9.64864 10.3959 10.0441C10.4864 10.4397 10.7096 10.803 11.0375 11.0881C11.3653 11.3733 11.783 11.5674 12.2378 11.6461C12.6925 11.7248 13.1638 11.6844 13.5922 11.5301C14.0205 11.3758 14.3866 11.1144 14.6442 10.7791C14.9018 10.4438 15.0393 10.0496 15.0393 9.64637C15.0393 9.16706 15.486 8.7785 16.0371 8.7785C16.5882 8.7785 17.0349 9.16706 17.0349 9.64637C17.0349 10.3929 16.7804 11.1227 16.3035 11.7435C15.8267 12.3642 15.1489 12.848 14.3559 13.1337C13.5629 13.4194 12.6903 13.4942 11.8484 13.3485C11.0066 13.2029 10.2333 12.8434 9.62635 12.3155C9.01941 11.7876 8.60608 11.115 8.43863 10.3828C8.27118 9.65056 8.35712 8.8916 8.68559 8.20187C9.01407 7.51214 9.57031 6.92262 10.284 6.50785Z" fill="#8D98AA"/>
<path fill-rule="evenodd" clip-rule="evenodd" d="M34.3757 10.9046C34.9189 10.9046 35.3592 11.2955 35.3592 11.7778V19.0893C35.3592 22.8296 34.5274 25.6749 32.4118 27.5638C30.2949 29.4539 27.1045 30.1974 22.9125 30.1974H13.0871C8.89635 30.1974 5.70604 29.4542 3.58882 27.5643C1.4729 25.6756 0.640396 22.8303 0.640396 19.0893V16.1495C0.640396 15.6673 1.08071 15.2764 1.62386 15.2764C2.16701 15.2764 2.60732 15.6673 2.60732 16.1495V19.0893C2.60732 22.6598 3.41391 24.9319 4.98334 26.3327C6.55148 27.7325 9.09277 28.451 13.0871 28.451H22.9125C26.9081 28.451 29.4493 27.7322 31.0171 26.3324C32.5862 24.9314 33.3922 22.6593 33.3922 19.0893V11.7778C33.3922 11.2955 33.8326 10.9046 34.3757 10.9046Z" fill="#8D98AA"/>
<path fill-rule="evenodd" clip-rule="evenodd" d="M3.62975 2.57959C5.77513 0.728288 9.00791 0 13.2575 0H19.9012C20.449 0 20.893 0.383178 20.893 0.855851C20.893 1.32852 20.449 1.7117 19.9012 1.7117H13.2575C9.20362 1.7117 6.62378 2.41668 5.03237 3.78994C3.44097 5.16321 2.624 7.38942 2.624 10.8876C2.624 11.3602 2.17996 11.7434 1.6322 11.7434C1.08444 11.7434 0.640396 11.3602 0.640396 10.8876C0.640396 7.22053 1.48437 4.43089 3.62975 2.57959Z" fill="#8D98AA"/>
<path fill-rule="evenodd" clip-rule="evenodd" d="M22.8218 5.03291C22.8218 4.56964 23.284 4.19409 23.8541 4.19409H33.3624C33.9326 4.19409 34.3947 4.56964 34.3947 5.03291C34.3947 5.49617 33.9326 5.87172 33.3624 5.87172H23.8541C23.284 5.87172 22.8218 5.49617 22.8218 5.03291Z" fill="#8D98AA"/>
<path fill-rule="evenodd" clip-rule="evenodd" d="M28.6087 0C29.1413 0 29.5731 0.401993 29.5731 0.897876V9.16791C29.5731 9.6638 29.1413 10.0658 28.6087 10.0658C28.0761 10.0658 27.6443 9.6638 27.6443 9.16791V0.897876C27.6443 0.401993 28.0761 0 28.6087 0Z" fill="#8D98AA"/>
<path fill-rule="evenodd" clip-rule="evenodd" d="M27.6922 16.5037L20.8667 21.6426L20.8486 21.6559C20.0188 22.251 18.9776 22.5763 17.9031 22.5763C16.8286 22.5763 15.7874 22.251 14.9576 21.6559C14.9486 21.6495 14.9398 21.643 14.9311 21.6363L14.4043 21.2305C13.963 20.9209 13.4211 20.74 12.8552 20.7137C12.2857 20.6872 11.7213 20.8186 11.2429 21.089L3.1456 25.8557C2.69363 26.1218 2.07976 26.0181 1.77451 25.6242C1.46925 25.2302 1.58818 24.6952 2.04016 24.4291L10.1578 19.6504C10.9885 19.1782 11.97 18.9485 12.9603 18.9946C13.9507 19.0406 14.8986 19.36 15.6669 19.9066C15.6769 19.9137 15.6867 19.921 15.6964 19.9284L16.2248 20.3353C16.6991 20.6713 17.2917 20.8548 17.9031 20.8548C18.5162 20.8548 19.1104 20.6702 19.5853 20.3325L26.4108 15.1936L26.4289 15.1802C27.2587 14.5852 28.2999 14.2599 29.3744 14.2599C30.4489 14.2599 31.4901 14.5852 32.3199 15.1802L32.3381 15.1936L35.0176 17.2112C35.4303 17.522 35.4759 18.0656 35.1193 18.4253C34.7628 18.7851 34.1392 18.8248 33.7264 18.514L31.0566 16.5036C30.5817 16.1659 29.9875 15.9814 29.3744 15.9814C28.7613 15.9814 28.1671 16.1659 27.6922 16.5037Z" fill="#8D98AA"/>
</svg>
