<svg width="21" height="20" viewBox="0 0 21 20" fill="none" xmlns="http://www.w3.org/2000/svg">
<path d="M10.0833 9.55083C10.0833 9.33166 10.2808 9.16666 10.5 9.16666C10.7191 9.16666 10.9166 9.33166 10.9166 9.55083V17.0833C10.9166 17.1938 10.8727 17.2998 10.7946 17.378C10.7165 17.4561 10.6105 17.5 10.5 17.5C10.3895 17.5 10.2835 17.4561 10.2054 17.378C10.1272 17.2998 10.0833 17.1938 10.0833 17.0833V9.55083Z" fill="#056E51"/>
<path fill-rule="evenodd" clip-rule="evenodd" d="M8.83331 6.66667C8.83336 6.29714 8.95616 5.93809 9.18241 5.64592C9.40866 5.35376 9.72555 5.14502 10.0833 5.0525V2.91667C10.0833 2.80616 10.1272 2.70018 10.2054 2.62204C10.2835 2.5439 10.3895 2.5 10.5 2.5C10.6105 2.5 10.7165 2.5439 10.7946 2.62204C10.8727 2.70018 10.9166 2.80616 10.9166 2.91667V5.0525C11.3085 5.15489 11.6497 5.3964 11.8766 5.73195C12.1034 6.06749 12.2004 6.47413 12.1493 6.87593C12.0983 7.27772 11.9028 7.64721 11.5993 7.91541C11.2958 8.1836 10.905 8.33215 10.5 8.33333C10.058 8.33333 9.63403 8.15774 9.32147 7.84518C9.00891 7.53262 8.83331 7.10869 8.83331 6.66667ZM10.5 7.5C10.721 7.5 10.933 7.4122 11.0892 7.25592C11.2455 7.09964 11.3333 6.88768 11.3333 6.66667C11.3333 6.44565 11.2455 6.23369 11.0892 6.07741C10.933 5.92113 10.721 5.83333 10.5 5.83333C10.279 5.83333 10.067 5.92113 9.91072 6.07741C9.75444 6.23369 9.66665 6.44565 9.66665 6.66667C9.66665 6.88768 9.75444 7.09964 9.91072 7.25592C10.067 7.4122 10.279 7.5 10.5 7.5ZM7.16665 13.3333C7.16657 13.6452 7.079 13.9508 6.9139 14.2153C6.7488 14.4799 6.51278 14.6928 6.23268 14.8299C5.95258 14.967 5.63963 15.0228 5.32941 14.9909C5.0192 14.9589 4.72416 14.8406 4.47784 14.6494C4.23152 14.4581 4.0438 14.2016 3.93602 13.909C3.82824 13.6163 3.80472 13.2993 3.86814 12.994C3.93156 12.6887 4.07938 12.4072 4.29478 12.1817C4.51019 11.9562 4.78454 11.7957 5.08665 11.7183C5.08448 11.7012 5.08337 11.6839 5.08331 11.6667V2.91667C5.08331 2.80616 5.12721 2.70018 5.20535 2.62204C5.28349 2.5439 5.38947 2.5 5.49998 2.5C5.61049 2.5 5.71647 2.5439 5.79461 2.62204C5.87275 2.70018 5.91665 2.80616 5.91665 2.91667V11.6667C5.91665 11.6842 5.9154 11.7013 5.91331 11.7183C6.27183 11.8103 6.58957 12.0189 6.81649 12.3112C7.0434 12.6036 7.16659 12.9632 7.16665 13.3333ZM6.33331 13.3333C6.33331 13.5543 6.24552 13.7663 6.08924 13.9226C5.93296 14.0789 5.72099 14.1667 5.49998 14.1667C5.27897 14.1667 5.067 14.0789 4.91072 13.9226C4.75444 13.7663 4.66665 13.5543 4.66665 13.3333C4.66665 13.1123 4.75444 12.9004 4.91072 12.7441C5.067 12.5878 5.27897 12.5 5.49998 12.5C5.72099 12.5 5.93296 12.5878 6.08924 12.7441C6.24552 12.9004 6.33331 13.1123 6.33331 13.3333Z" fill="#056E51"/>
<path d="M15.5 17.5C15.3895 17.5 15.2835 17.4561 15.2054 17.378C15.1272 17.2998 15.0833 17.1938 15.0833 17.0833V14.1342C15.0833 13.915 15.2808 13.75 15.5 13.75C15.7191 13.75 15.9166 13.915 15.9166 14.1342V17.0833C15.9166 17.1938 15.8727 17.2998 15.7946 17.378C15.7165 17.4561 15.6105 17.5 15.5 17.5Z" fill="#056E51"/>
<path fill-rule="evenodd" clip-rule="evenodd" d="M15.5 2.5C15.3895 2.5 15.2835 2.5439 15.2054 2.62204C15.1272 2.70018 15.0833 2.80616 15.0833 2.91667V9.63583C14.6914 9.73822 14.3502 9.97973 14.1234 10.3153C13.8966 10.6508 13.7996 11.0575 13.8506 11.4593C13.9017 11.8611 14.0972 12.2305 14.4007 12.4987C14.7042 12.7669 15.095 12.9155 15.5 12.9167C15.9059 12.9171 16.2981 12.7693 16.6028 12.5011C16.9075 12.2329 17.1039 11.8627 17.155 11.46C17.2062 11.0573 17.1086 10.6497 16.8806 10.3139C16.6526 9.97802 16.3098 9.73692 15.9166 9.63583V2.91667C15.9166 2.80616 15.8727 2.70018 15.7946 2.62204C15.7165 2.5439 15.6105 2.5 15.5 2.5ZM15.5 10.4167C15.279 10.4167 15.067 10.5045 14.9107 10.6607C14.7544 10.817 14.6666 11.029 14.6666 11.25C14.6666 11.471 14.7544 11.683 14.9107 11.8393C15.067 11.9955 15.279 12.0833 15.5 12.0833C15.721 12.0833 15.933 11.9955 16.0892 11.8393C16.2455 11.683 16.3333 11.471 16.3333 11.25C16.3333 11.029 16.2455 10.817 16.0892 10.6607C15.933 10.5045 15.721 10.4167 15.5 10.4167Z" fill="#056E51"/>
<path d="M5.08331 17.0833C5.08331 17.1938 5.12721 17.2998 5.20535 17.378C5.28349 17.4561 5.38947 17.5 5.49998 17.5C5.61049 17.5 5.71647 17.4561 5.79461 17.378C5.87275 17.2998 5.91665 17.1938 5.91665 17.0833V16.2175C5.91665 15.9983 5.71915 15.8333 5.49998 15.8333C5.28081 15.8333 5.08331 15.9983 5.08331 16.2175V17.0833Z" fill="#056E51"/>
</svg>
