<svg width="25" height="24" viewBox="0 0 25 24" fill="none" xmlns="http://www.w3.org/2000/svg">
<path fill-rule="evenodd" clip-rule="evenodd" d="M8.61011 18C8.61011 17.8011 8.69207 17.6103 8.83797 17.4697C8.98387 17.329 9.18176 17.25 9.38809 17.25H15.612C15.8183 17.25 16.0162 17.329 16.1621 17.4697C16.308 17.6103 16.39 17.8011 16.39 18C16.39 18.1989 16.308 18.3897 16.1621 18.5303C16.0162 18.671 15.8183 18.75 15.612 18.75H9.38809C9.18176 18.75 8.98387 18.671 8.83797 18.5303C8.69207 18.3897 8.61011 18.1989 8.61011 18Z" fill="#056E51"/>
<path fill-rule="evenodd" clip-rule="evenodd" d="M9.07689 1.25H15.9232C16.1514 1.25 16.3267 1.25 16.4792 1.266C17.1559 1.33589 17.7845 1.63677 18.2513 2.11431C18.7182 2.59185 18.9925 3.21456 19.0247 3.87C19.6334 4.04692 20.1679 4.40592 20.551 4.89508C20.934 5.38424 21.1457 5.97819 21.1554 6.591C21.7788 6.771 22.3172 7.056 22.757 7.514C23.4333 8.219 23.6428 9.086 23.6511 10.1C23.6584 11.075 23.479 12.307 23.2549 13.836L22.7985 16.95C22.6242 18.146 22.4821 19.118 22.2611 19.879C22.0298 20.676 21.6885 21.331 21.0579 21.835C20.4313 22.335 19.6886 22.55 18.811 22.652C17.9615 22.75 16.893 22.75 15.5643 22.75H9.4358C8.10597 22.75 7.03753 22.75 6.18901 22.652C5.31041 22.55 4.56769 22.335 3.94115 21.835C3.31047 21.331 2.96919 20.675 2.73787 19.879C2.51692 19.118 2.37481 18.146 2.1995 16.949L1.74412 13.836C1.5211 12.306 1.33957 11.075 1.34787 10.1C1.35617 9.086 1.5657 8.219 2.24203 7.514C2.68185 7.056 3.21918 6.772 3.84261 6.591C3.85259 5.97824 4.06452 5.38442 4.44773 4.89544C4.83094 4.40647 5.36557 4.04769 5.97429 3.871C6.00631 3.21539 6.28052 2.59243 6.74736 2.11469C7.2142 1.63694 7.8429 1.33592 8.51985 1.266C8.67234 1.25 8.84764 1.25 9.07482 1.25H9.07689ZM5.43385 6.328C6.3944 6.25 7.57071 6.25 8.98872 6.25H16.0093C17.4262 6.25 18.6025 6.25 19.5641 6.328C19.4923 6.02176 19.3145 5.74819 19.06 5.55228C18.8055 5.35636 18.4894 5.24976 18.1638 5.25H6.83526C6.14129 5.25 5.57803 5.72 5.43592 6.328H5.43385ZM16.3122 2.758C16.8827 2.816 17.3339 3.226 17.4449 3.75H7.55411C7.60915 3.49001 7.74858 3.25364 7.95223 3.07512C8.15587 2.8966 8.41317 2.78518 8.68686 2.757C8.74495 2.751 8.82794 2.75 9.11942 2.75H15.8806C16.1711 2.75 16.2541 2.751 16.3132 2.757L16.3122 2.758ZM3.38515 8.532C3.69946 8.205 4.17144 7.988 5.08946 7.87C6.02408 7.75 7.27612 7.749 9.04785 7.749H15.9522C17.7239 7.749 18.976 7.751 19.9106 7.87C20.8286 7.988 21.3006 8.205 21.6149 8.532C21.9219 8.852 22.089 9.287 22.0952 10.111C22.1014 10.961 21.9396 12.081 21.7051 13.687L21.2664 16.687C21.0817 17.948 20.9531 18.82 20.7633 19.474C20.5797 20.104 20.3649 20.439 20.0652 20.678C19.7612 20.922 19.3525 21.078 18.6254 21.162C17.8795 21.248 16.9045 21.249 15.5134 21.249H9.48663C8.09456 21.249 7.12052 21.248 6.37469 21.162C5.64857 21.077 5.23883 20.922 4.9349 20.679C4.63512 20.439 4.42039 20.103 4.23679 19.474C4.04696 18.82 3.91833 17.948 3.73369 16.687L3.29491 13.687C3.06047 12.082 2.89865 10.961 2.90488 10.111C2.9111 9.287 3.07811 8.851 3.38515 8.532Z" fill="#056E51"/>
</svg>
