<svg width="44" height="44" viewBox="0 0 44 44" fill="none" xmlns="http://www.w3.org/2000/svg">
<path d="M39.9309 18.1881H38.477V18.114H22.2319V25.2488H32.4329C30.9447 29.4022 26.9457 32.3836 22.2319 32.3836C16.2511 32.3836 11.4019 27.5917 11.4019 21.6814C11.4019 15.7711 16.2511 10.9792 22.2319 10.9792C24.9927 10.9792 27.5044 12.0084 29.4168 13.6896L34.5222 8.64438C31.2985 5.67541 26.9863 3.84444 22.2319 3.84444C12.2638 3.84444 4.18188 11.831 4.18188 21.6814C4.18188 31.5319 12.2638 39.5184 22.2319 39.5184C32.2001 39.5184 40.282 31.5319 40.282 21.6814C40.282 20.4855 40.1574 19.318 39.9309 18.1881Z" fill="#FFC107"/>
<path d="M6.26294 13.3792L12.1933 17.677C13.7979 13.7511 17.6841 10.9792 22.2318 10.9792C24.9926 10.9792 27.5042 12.0084 29.4166 13.6896L34.5221 8.64438C31.2984 5.67541 26.9862 3.84444 22.2318 3.84444C15.2988 3.84444 9.28632 7.7124 6.26294 13.3792Z" fill="#FF3D00"/>
<path d="M22.232 39.5185C26.8944 39.5185 31.1307 37.7553 34.3337 34.888L28.7472 30.2165C26.8741 31.6242 24.5853 32.3855 22.232 32.3837C17.5372 32.3837 13.5509 29.4254 12.0491 25.297L6.16296 29.7786C9.15025 35.5551 15.2169 39.5185 22.232 39.5185Z" fill="#4CAF50"/>
<path d="M39.9309 18.1881H38.477V18.114H22.2319V25.2488H32.4329C31.721 27.2255 30.4387 28.9528 28.7444 30.2173L28.7471 30.2155L34.3336 34.887C33.9383 35.242 40.282 30.5999 40.282 21.6814C40.282 20.4855 40.1574 19.318 39.9309 18.1881Z" fill="#1976D2"/>
</svg>
