<svg width="54" height="48" viewBox="0 0 54 48" fill="none" xmlns="http://www.w3.org/2000/svg">
<rect x="0.5" y="0.5" width="53" height="47" rx="9.5" fill="#FAFAFA"/>
<path d="M36.8055 22.0415H36V22H27V26H32.6515C31.827 28.3285 29.6115 30 27 30C23.6865 30 21 27.3135 21 24C21 20.6865 23.6865 18 27 18C28.5295 18 29.921 18.577 30.9805 19.5195L33.809 16.691C32.023 15.0265 29.634 14 27 14C21.4775 14 17 18.4775 17 24C17 29.5225 21.4775 34 27 34C32.5225 34 37 29.5225 37 24C37 23.3295 36.931 22.675 36.8055 22.0415Z" fill="#FFC107"/>
<path d="M18.1528 19.3455L21.4383 21.755C22.3273 19.554 24.4803 18 26.9998 18C28.5293 18 29.9208 18.577 30.9803 19.5195L33.8088 16.691C32.0228 15.0265 29.6338 14 26.9998 14C23.1588 14 19.8278 16.1685 18.1528 19.3455Z" fill="#FF3D00"/>
<path d="M27.0002 34C29.5832 34 31.9302 33.0115 33.7047 31.404L30.6097 28.785C29.5719 29.5742 28.3039 30.001 27.0002 30C24.3992 30 22.1907 28.3415 21.3587 26.027L18.0977 28.5395C19.7527 31.778 23.1137 34 27.0002 34Z" fill="#4CAF50"/>
<path d="M36.8055 22.0415H36V22H27V26H32.6515C32.2571 27.1082 31.5467 28.0766 30.608 28.7855L30.6095 28.7845L33.7045 31.4035C33.4855 31.6025 37 29 37 24C37 23.3295 36.931 22.675 36.8055 22.0415Z" fill="#1976D2"/>
<rect x="0.5" y="0.5" width="53" height="47" rx="9.5" stroke="#056E51"/>
</svg>
