<svg width="54" height="48" viewBox="0 0 54 48" fill="none" xmlns="http://www.w3.org/2000/svg">
<rect x="0.5" y="0.5" width="53" height="47" rx="7.5" fill="#FAFAFA"/>
<path d="M36.543 19.104C36.5576 19.3157 36.5576 19.5272 36.5576 19.7408C36.5576 26.247 31.6044 33.7508 22.5476 33.7508V33.747C19.872 33.7508 17.2519 32.9844 15 31.5394C15.3891 31.5863 15.78 31.6097 16.1719 31.6107C18.3895 31.6124 20.5433 30.8687 22.2872 29.4988C21.2597 29.4794 20.2639 29.1394 19.4391 28.5263C18.6144 27.9132 18.0018 27.0577 17.6871 26.0794C18.4253 26.2219 19.1858 26.1925 19.9102 25.9945C17.613 25.5304 15.9604 23.5122 15.9604 21.1682V21.1058C16.6452 21.4873 17.4116 21.6987 18.1952 21.7221C16.0312 20.2761 15.3647 17.3978 16.6712 15.1476C17.9074 16.6687 19.4497 17.9128 21.198 18.799C22.9463 19.6852 24.8614 20.1938 26.8191 20.2917C26.6239 19.4514 26.6528 18.5747 26.9028 17.7491C27.1528 16.9236 27.6152 16.1781 28.2437 15.5873C30.2269 13.723 33.3459 13.8186 35.2101 15.8008C36.3128 15.5831 37.3703 15.1788 38.337 14.6053C37.9694 15.7455 37.2002 16.7133 36.1725 17.3288C37.1486 17.2137 38.1017 16.9523 39 16.5535C38.3392 17.543 37.5072 18.4067 36.543 19.104Z" fill="#1D9BF0"/>
<rect x="0.5" y="0.5" width="53" height="47" rx="7.5" stroke="#056E51"/>
</svg>
