<svg width="54" height="48" viewBox="0 0 54 48" fill="none" xmlns="http://www.w3.org/2000/svg">
<rect x="0.5" y="0.5" width="53" height="47" rx="7.5" fill="#FAFAFA"/>
<g clip-path="url(#clip0_308_647)">
<path d="M36.872 12.9056H17.1301C16.4539 12.9056 15.9058 13.4538 15.9058 14.13V33.8719C15.9058 34.5481 16.4539 35.0963 17.1301 35.0963H36.872C37.5482 35.0963 38.0964 34.5481 38.0964 33.8719V14.13C38.0964 13.4538 37.5482 12.9056 36.872 12.9056Z" fill="#3D5A98"/>
<path d="M31.215 35.0944V26.5013H34.0987L34.53 23.1525H31.215V21.015C31.215 20.0456 31.485 19.3838 32.8743 19.3838H34.6481V16.3838C33.7892 16.2942 32.926 16.2517 32.0625 16.2563C29.5087 16.2563 27.75 17.8125 27.75 20.6831V23.1525H24.8662V26.5013H27.75V35.0944H31.215Z" fill="white"/>
</g>
<rect x="0.5" y="0.5" width="53" height="47" rx="7.5" stroke="#056E51"/>
<defs>
<clipPath id="clip0_308_647">
<rect width="24" height="24" fill="white" transform="translate(15 12)"/>
</clipPath>
</defs>
</svg>
