<svg width="54" height="48" viewBox="0 0 54 48" fill="none" xmlns="http://www.w3.org/2000/svg">
<rect x="0.5" y="0.5" width="53" height="47" rx="7.5" fill="#FAFAFA"/>
<g clip-path="url(#clip0_308_643)">
<path d="M36.75 12.5625H17.25C16.8076 12.558 16.3814 12.7292 16.065 13.0386C15.7487 13.3479 15.5679 13.7701 15.5625 14.2125V33.7913C15.5689 34.2331 15.7501 34.6543 16.0663 34.9628C16.3826 35.2714 16.8082 35.442 17.25 35.4375H36.75C37.1925 35.441 37.6183 35.2693 37.9345 34.9597C38.2507 34.6502 38.4316 34.2281 38.4375 33.7857V14.2069C38.4296 13.7658 38.2479 13.3456 37.9319 13.0377C37.6159 12.7297 37.1912 12.559 36.75 12.5625Z" fill="#0076B2"/>
<path d="M18.9487 21.1369H22.3443V32.0625H18.9487V21.1369ZM20.6475 15.6994C21.0369 15.6994 21.4176 15.8149 21.7414 16.0313C22.0652 16.2477 22.3176 16.5553 22.4665 16.9152C22.6155 17.275 22.6544 17.671 22.5782 18.0529C22.5021 18.4349 22.3144 18.7857 22.0389 19.0609C21.7634 19.3362 21.4124 19.5235 21.0304 19.5993C20.6484 19.6751 20.2525 19.6358 19.8928 19.4865C19.533 19.3372 19.2257 19.0846 19.0096 18.7606C18.7935 18.4366 18.6783 18.0557 18.6787 17.6663C18.6792 17.1445 18.8868 16.6442 19.256 16.2754C19.6252 15.9066 20.1256 15.6994 20.6475 15.6994ZM24.4743 21.1369H27.7293V22.6369H27.7743C28.2281 21.7782 29.3343 20.8725 30.9862 20.8725C34.425 20.865 35.0625 23.1282 35.0625 26.0625V32.0625H31.6668V26.7469C31.6668 25.4813 31.6443 23.8519 29.9025 23.8519C28.1606 23.8519 27.8643 25.2319 27.8643 26.6644V32.0625H24.4743V21.1369Z" fill="white"/>
</g>
<rect x="0.5" y="0.5" width="53" height="47" rx="7.5" stroke="#056E51"/>
<defs>
<clipPath id="clip0_308_643">
<rect width="24" height="24" fill="white" transform="translate(15 12)"/>
</clipPath>
</defs>
</svg>
